HIERARCHY
ROOT Hips
{
	OFFSET -3.958830 18.904000 13.208200
	CHANNELS 6 Xposition Yposition Zposition Zrotation Yrotation Xrotation 
	JOINT LHipJoint
	{
		OFFSET 0.000000 0.000000 0.000000
		CHANNELS 3 Zrotation Yrotation Xrotation
		JOINT LeftUpLeg
		{
			OFFSET 1.800000 -1.400000 0.085000
			CHANNELS 3 Zrotation Yrotation Xrotation
			JOINT LeftLeg
			{
				OFFSET 2.215000 -6.000000 0.000000
				CHANNELS 3 Zrotation Yrotation Xrotation
				JOINT LeftFoot
				{
					OFFSET 2.500000 -6.900000 0.000000
					CHANNELS 3 Zrotation Yrotation Xrotation
					JOINT LeftToeBase
					{
						OFFSET 0.200000 -0.500000 1.950000
						CHANNELS 3 Zrotation Yrotation Xrotation
						End Site
						{
							OFFSET 0.000000 0.000000 0.000000
						}
					}
				}
			}
		}
	}
	JOINT RHipJoint
	{
		OFFSET 0.000000 0.000000 0.000000
		CHANNELS 3 Zrotation Yrotation Xrotation
		JOINT RightUpLeg
		{
			OFFSET -1.800000 -1.400000 0.085000
			CHANNELS 3 Zrotation Yrotation Xrotation
			JOINT RightLeg
			{
				OFFSET -2.215000 -6.000000 0.000000
				CHANNELS 3 Zrotation Yrotation Xrotation
				JOINT RightFoot
				{
					OFFSET -2.500000 -6.900000 0.000000
					CHANNELS 3 Zrotation Yrotation Xrotation
					JOINT RightToeBase
					{
						OFFSET -0.200000 -0.500000 1.950000
						CHANNELS 3 Zrotation Yrotation Xrotation
						End Site
						{
							OFFSET 0.000000 0.000000 0.000000
						}
					}
				}
			}
		}
	}
	JOINT LowerBack
	{
		OFFSET 0.000000 0.000000 0.000000
		CHANNELS 3 Zrotation Yrotation Xrotation
		JOINT Spine
		{
			OFFSET -0.087000 1.940000 -0.288900
			CHANNELS 3 Zrotation Yrotation Xrotation
			JOINT Spine1
			{
				OFFSET 0.000000 1.950000 0.060000
				CHANNELS 3 Zrotation Yrotation Xrotation
				JOINT Neck
				{
					OFFSET 0.000000 0.000000 0.000000
					CHANNELS 3 Zrotation Yrotation Xrotation
					JOINT Neck1
					{
						OFFSET 0.000000 1.600000 0.340000
						CHANNELS 3 Zrotation Yrotation Xrotation
						JOINT Head
						{
							OFFSET 0.000000 1.667000 -0.240000
							CHANNELS 3 Zrotation Yrotation Xrotation
							End Site
							{
								OFFSET 0.000000 0.000000 0.000000
							}
						}
					}
				}
				JOINT LeftShoulder
				{
					OFFSET 0.000000 0.000000 0.000000
					CHANNELS 3 Zrotation Yrotation Xrotation
					JOINT LeftArm
					{
						OFFSET 2.700000 1.550000 -0.730000
						CHANNELS 3 Zrotation Yrotation Xrotation
						JOINT LeftForeArm
						{
							OFFSET 5.450000 0.000000 0.000000
							CHANNELS 3 Zrotation Yrotation Xrotation
							JOINT LeftHand
							{
								OFFSET 3.450000 0.000000 0.000000
								CHANNELS 3 Zrotation Yrotation Xrotation
								JOINT LeftHandIndex1
								{
									OFFSET 0.750000 0.000000 0.000000
									CHANNELS 3 Zrotation Yrotation Xrotation
									End Site
									{
										OFFSET 0.000000 0.000000 0.000000
									}
								}
							}
						}
					}
				}
				JOINT RightShoulder
				{
					OFFSET 0.000000 0.000000 0.000000
					CHANNELS 3 Zrotation Yrotation Xrotation
					JOINT RightArm
					{
						OFFSET -2.700000 1.550000 -0.730000
						CHANNELS 3 Zrotation Yrotation Xrotation
						JOINT RightForeArm
						{
							OFFSET -5.450000 0.000000 0.000000
							CHANNELS 3 Zrotation Yrotation Xrotation
							JOINT RightHand
							{
								OFFSET -3.450000 0.000000 0.000000
								CHANNELS 3 Zrotation Yrotation Xrotation
								JOINT RightHandIndex1
								{
									OFFSET -0.750000 0.000000 0.000000
									CHANNELS 3 Zrotation Yrotation Xrotation
									End Site
									{
										OFFSET 0.000000 0.000000 0.000000
									}
								}
							}
						}
					}
				}
			}
		}
	}
}
MOTION
Frames: 7
Frame Time: 0.016667
0.661490 16.871180 -5.037400 -4.210673 -34.536060 7.666126 -15.237775 13.253862 3.474795 -5.460616 -3.368883 -18.429498 -7.105207 5.052078 13.688141 0.006899 2.845417 3.674394 0.783650 0.769580 0.443750 18.240820 -10.866319 2.549438 1.898840 0.006126 -2.063674 0.438977 -5.031079 25.959645 -0.794502 -4.819215 2.905579 0.277490 0.055220 0.356290 -3.086319 -2.201623 -6.923602 2.005311 1.108663 6.047024 -4.515724 0.764891 -6.696688 2.395670 -8.450551 -3.511827 -16.151482 20.249842 28.457581 -2.344880 18.461980 -8.330160 -16.147622 17.233484 -3.230001 -45.192932 5.426515 -7.106328 5.617948 -15.629869 -1.204769 -3.580446 3.121338 0.293030 0.081490 0.331510 0.538060 11.481417 -10.579114 0.334863 45.195883 -7.591413 -15.043321 -48.152116 59.806658 -21.442745 1.787174 -1.508204 0.176100 -0.079510 -0.606470 0.066460 
0.671400 16.867900 -5.042370 -4.209776 -34.528010 7.442147 -15.233980 13.275273 3.487946 -5.141512 -3.461178 -18.890662 -7.480991 5.322826 14.701401 0.029014 2.954290 3.630247 0.784660 0.770110 0.437020 18.235394 -10.858852 2.568600 2.023241 0.003500 -2.040981 0.476842 -5.050993 26.052718 -0.799520 -4.817980 2.907962 0.273920 0.053600 0.350020 -3.073088 -2.248330 -6.968801 2.074641 1.086348 6.433097 -4.617624 0.797356 -6.868923 2.501519 -8.620749 -3.758939 -16.654004 20.341437 28.703927 -1.842660 18.147450 -8.166490 -15.948049 17.209540 -3.216125 -45.309568 5.532207 -7.165991 5.835097 -15.627002 -1.228434 -3.569443 3.118817 0.298470 0.070430 0.332740 0.540390 11.098803 -10.401353 0.616769 43.969552 -8.596912 -15.384066 -44.089677 61.789743 -20.207778 1.787376 -1.555338 0.178490 -0.075860 -0.605760 0.070480 
0.694610 16.863080 -5.053300 -4.064846 -34.457882 6.833353 -15.223662 13.311611 3.542143 -4.664793 -3.723475 -19.911674 -8.113272 5.896387 16.987943 0.089184 3.192843 3.527362 0.790710 0.777070 0.436820 18.224047 -10.849986 2.607339 2.186148 -0.049397 -1.900611 0.468558 -5.044992 25.947352 -0.816412 -4.770135 2.922747 0.261500 0.029500 0.338800 -3.046726 -2.334472 -7.087841 2.151513 0.981989 7.434082 -4.883254 0.794338 -7.504224 2.695307 -8.939219 -4.247647 -17.732335 20.531484 29.735855 -1.201550 17.666170 -8.402000 -15.528786 17.325277 -3.201132 -45.385626 5.840293 -7.312021 6.134332 -15.717982 -1.251389 -3.530750 3.107888 0.320720 0.031640 0.357240 0.541990 10.347346 -10.210103 1.056534 42.630595 -9.907011 -15.670890 -38.796299 64.194744 -18.432937 1.814738 -1.622869 0.191440 -0.070580 -0.610810 0.077160 
0.725510 16.859790 -5.069650 -3.918804 -34.462851 5.826432 -15.218053 13.358848 3.642937 -3.833416 -4.151932 -21.319067 -9.011445 6.813499 20.408207 0.182120 3.626724 3.335643 0.817360 0.801360 0.462040 18.199251 -10.829353 2.644847 2.204255 -0.082386 -1.599125 0.717063 -5.216975 26.365138 -0.860843 -4.781870 2.909051 0.251090 -0.032830 0.325970 -2.982427 -2.480377 -7.276303 2.084955 0.856545 9.129985 -5.097476 0.825599 -8.416514 3.004529 -9.201701 -4.873333 -19.013268 20.824038 31.613217 -0.742870 17.252540 -9.264370 -15.333342 17.388787 -3.191144 -45.255859 6.229717 -7.570232 5.794834 -16.989615 -1.260077 -3.449594 3.111408 0.364750 -0.033310 0.403710 0.535060 9.646465 -9.975035 1.542721 41.075583 -11.315797 -15.694717 -32.605356 66.422817 -16.017747 1.868519 -1.723608 0.215010 -0.079510 -0.627530 0.072510 
0.761080 16.846440 -5.101710 -4.116509 -35.522271 4.869761 -15.201395 13.328174 3.776460 -2.107094 -4.602201 -23.222272 -10.730717 8.255642 24.303125 0.304788 4.348936 3.037512 0.857710 0.841880 0.496900 18.194487 -10.815995 2.661380 2.302888 0.007328 -1.334493 0.548667 -5.276493 27.393114 -0.916431 -4.851116 2.869763 0.258510 -0.093810 0.319340 -2.986908 -2.495920 -7.454006 2.373069 1.110923 11.065593 -5.476132 1.303398 -9.030899 3.223955 -9.424924 -5.343535 -20.137251 21.239164 33.091257 -0.429550 16.918610 -10.523380 -15.370396 17.399650 -3.289930 -44.931904 6.229031 -7.796383 5.191442 -19.231566 -1.271738 -3.369810 3.128005 0.406800 -0.090210 0.448870 0.528520 9.199030 -9.649467 1.924318 39.345483 -12.370006 -15.405871 -26.569665 68.372590 -13.535264 1.915855 -1.832056 0.236810 -0.087000 -0.646040 0.063990 
0.801180 16.829030 -5.132790 -4.170147 -36.450811 3.532359 -15.184378 13.208983 3.982707 0.010511 -5.165033 -25.245526 -12.943523 10.163634 28.595172 0.465325 5.350013 2.639892 0.918040 0.899120 0.554610 18.204428 -10.792071 2.633762 1.980830 0.050472 -0.644280 0.616540 -5.529920 28.613425 -0.999268 -4.998246 2.796156 0.278760 -0.172750 0.316950 -3.053058 -2.442572 -7.643198 2.913623 1.184058 13.267254 -6.447586 1.646102 -9.220293 3.444617 -9.587376 -5.822186 -21.238257 21.688053 34.693295 -0.437500 16.569630 -12.644610 -15.603411 17.037390 -3.376160 -44.173929 5.910255 -7.954015 4.471328 -22.038603 -1.259172 -3.276977 3.153829 0.463060 -0.156620 0.505790 0.517230 8.828683 -9.134802 2.323108 37.827106 -13.127638 -14.994605 -19.674332 70.063402 -10.406724 1.962060 -1.947292 0.260240 -0.095050 -0.669250 0.044980 
0.843340 16.810790 -5.168710 -3.835198 -37.779115 1.984580 -15.208337 13.005556 4.318575 2.572900 -5.830082 -27.808676 -15.935718 12.750982 33.091904 0.710429 6.653088 2.148572 0.973100 0.948430 0.614540 18.191019 -10.721423 2.531173 1.035511 0.084583 0.242608 0.734600 -5.806746 29.431927 -1.073709 -5.120544 2.731966 0.288010 -0.258280 0.322220 -3.041840 -2.409476 -7.871596 2.710257 1.438342 15.746311 -7.199697 2.147942 -9.666583 3.787267 -9.597876 -6.361685 -22.115308 22.015331 36.409690 -0.896660 16.350710 -14.827890 -15.980172 16.501560 -3.526978 -43.062322 5.490664 -7.840575 3.480231 -23.250809 -1.092394 -3.198400 3.175118 0.514940 -0.222200 0.566680 0.502170 8.488817 -8.457723 2.856799 36.277511 -14.109111 -14.462805 -12.128375 71.564188 -6.607462 2.015973 -2.059844 0.292330 -0.114480 -0.691890 0.025700 
